<?xml version="1.0" encoding="US-ASCII" standalone="no"?>
<!DOCTYPE svg PUBLIC "-//W3C//DTD SVG 1.1//EN"
  "http://www.w3.org/Graphics/SVG/1.1/DTD/svg11.dtd">
<svg width="830" height="208" xmlns="http://www.w3.org/2000/svg" version="1.1"><g stroke="black" stroke-width="1"><g transform="translate(412,14)"><line x1="0" y1="0" x2="0" y2="20"/><line x1="0" y1="0" x2="-399" y2="20"/><line x1="0" y1="0" x2="-393" y2="20"/><line x1="0" y1="0" x2="-387" y2="20"/><line x1="0" y1="0" x2="399" y2="20"/><line x1="0" y1="0" x2="405" y2="20"/><g transform="translate(0,20)"><line x1="0" y1="0" x2="0" y2="20"/><line x1="0" y1="0" x2="-375" y2="20"/><line x1="0" y1="0" x2="-357" y2="20"/><line x1="0" y1="0" x2="-339" y2="20"/><line x1="0" y1="0" x2="-321" y2="20"/><line x1="0" y1="0" x2="366" y2="20"/><line x1="0" y1="0" x2="378" y2="20"/><line x1="0" y1="0" x2="390" y2="20"/><g transform="translate(0,20)"><line x1="0" y1="0" x2="0" y2="20"/><line x1="0" y1="0" x2="-300" y2="20"/><line x1="0" y1="0" x2="240" y2="20"/><line x1="0" y1="0" x2="276" y2="20"/><line x1="0" y1="0" x2="312" y2="20"/><line x1="0" y1="0" x2="342" y2="20"/><g transform="translate(0,20)"><line x1="0" y1="0" x2="0" y2="20"/><line x1="0" y1="0" x2="-252" y2="20"/><line x1="0" y1="0" x2="-126" y2="20"/><line x1="0" y1="0" x2="174" y2="20"/><g transform="translate(0,20)"><line x1="0" y1="0" x2="0" y2="20"/><g transform="translate(0,20)"><line x1="0" y1="0" x2="-24" y2="20"/><line x1="0" y1="0" x2="78" y2="20"/><g transform="translate(-24,20)"><line x1="0" y1="0" x2="-24" y2="20"/><line x1="0" y1="0" x2="12" y2="20"/><g transform="translate(-24,20)"><line x1="0" y1="0" x2="-12" y2="20"/><line x1="0" y1="0" x2="0" y2="20"/><line x1="0" y1="0" x2="15" y2="20"/><g transform="translate(-12,20)"><line x1="0" y1="0" x2="-3" y2="20"/><line x1="0" y1="0" x2="3" y2="20"/><g transform="translate(-3,20)"><g fill="#00f"><rect x="-2" y="-2" width="4" height="4"/></g></g><g transform="translate(3,20)"><g fill="#00f"><rect x="-2" y="-2" width="4" height="4"/></g></g><g fill="#0f0"><circle r="3"/></g></g><g transform="translate(0,20)"><line x1="0" y1="0" x2="-3" y2="20"/><line x1="0" y1="0" x2="3" y2="20"/><g transform="translate(-3,20)"><g fill="#00f"><rect x="-2" y="-2" width="4" height="4"/></g></g><g transform="translate(3,20)"><g fill="#00f"><rect x="-2" y="-2" width="4" height="4"/></g></g><g fill="#0f0"><circle r="3"/></g></g><g transform="translate(15,20)"><line x1="0" y1="0" x2="-6" y2="20"/><line x1="0" y1="0" x2="0" y2="20"/><line x1="0" y1="0" x2="6" y2="20"/><g transform="translate(-6,20)"><g fill="#00f"><rect x="-2" y="-2" width="4" height="4"/></g></g><g transform="translate(0,20)"><g fill="#00f"><rect x="-2" y="-2" width="4" height="4"/></g></g><g transform="translate(6,20)"><g fill="#00f"><rect x="-2" y="-2" width="4" height="4"/></g></g><g fill="#0f0"><circle r="3"/></g></g><g fill="#0f0"><circle r="3"/></g></g><g transform="translate(12,20)"><line x1="0" y1="0" x2="-6" y2="20"/><line x1="0" y1="0" x2="6" y2="20"/><g transform="translate(-6,20)"><line x1="0" y1="0" x2="-3" y2="20"/><line x1="0" y1="0" x2="3" y2="20"/><g transform="translate(-3,20)"><g fill="#00f"><rect x="-2" y="-2" width="4" height="4"/></g></g><g transform="translate(3,20)"><g fill="#00f"><rect x="-2" y="-2" width="4" height="4"/></g></g><g fill="#0f0"><circle r="3"/></g></g><g transform="translate(6,20)"><line x1="0" y1="0" x2="-3" y2="20"/><line x1="0" y1="0" x2="3" y2="20"/><g transform="translate(-3,20)"><g fill="#00f"><rect x="-2" y="-2" width="4" height="4"/></g></g><g transform="translate(3,20)"><g fill="#00f"><rect x="-2" y="-2" width="4" height="4"/></g></g><g fill="#0f0"><circle r="3"/></g></g><g fill="#0f0"><circle r="3"/></g></g><g fill="#0f0"><circle r="3"/></g></g><g transform="translate(78,20)"><line x1="0" y1="0" x2="-51" y2="20"/><line x1="0" y1="0" x2="0" y2="20"/><line x1="0" y1="0" x2="42" y2="20"/><g transform="translate(-51,20)"><line x1="0" y1="0" x2="-18" y2="20"/><line x1="0" y1="0" x2="0" y2="20"/><line x1="0" y1="0" x2="18" y2="20"/><g transform="translate(-18,20)"><line x1="0" y1="0" x2="-6" y2="20"/><line x1="0" y1="0" x2="0" y2="20"/><line x1="0" y1="0" x2="6" y2="20"/><g transform="translate(-6,20)"><g fill="#00f"><rect x="-2" y="-2" width="4" height="4"/></g></g><g transform="translate(0,20)"><g fill="#00f"><rect x="-2" y="-2" width="4" height="4"/></g></g><g transform="translate(6,20)"><g fill="#00f"><rect x="-2" y="-2" width="4" height="4"/></g></g><g fill="#0f0"><circle r="3"/></g></g><g transform="translate(0,20)"><line x1="0" y1="0" x2="-6" y2="20"/><line x1="0" y1="0" x2="0" y2="20"/><line x1="0" y1="0" x2="6" y2="20"/><g transform="translate(-6,20)"><g fill="#00f"><rect x="-2" y="-2" width="4" height="4"/></g></g><g transform="translate(0,20)"><g fill="#00f"><rect x="-2" y="-2" width="4" height="4"/></g></g><g transform="translate(6,20)"><g fill="#00f"><rect x="-2" y="-2" width="4" height="4"/></g></g><g fill="#0f0"><circle r="3"/></g></g><g transform="translate(18,20)"><line x1="0" y1="0" x2="-6" y2="20"/><line x1="0" y1="0" x2="0" y2="20"/><line x1="0" y1="0" x2="6" y2="20"/><g transform="translate(-6,20)"><g fill="#00f"><rect x="-2" y="-2" width="4" height="4"/></g></g><g transform="translate(0,20)"><g fill="#00f"><rect x="-2" y="-2" width="4" height="4"/></g></g><g transform="translate(6,20)"><g fill="#00f"><rect x="-2" y="-2" width="4" height="4"/></g></g><g fill="#0f0"><circle r="3"/></g></g><g fill="#0f0"><circle r="3"/></g></g><g transform="translate(0,20)"><line x1="0" y1="0" x2="-15" y2="20"/><line x1="0" y1="0" x2="0" y2="20"/><line x1="0" y1="0" x2="15" y2="20"/><g transform="translate(-15,20)"><line x1="0" y1="0" x2="-6" y2="20"/><line x1="0" y1="0" x2="0" y2="20"/><line x1="0" y1="0" x2="6" y2="20"/><g transform="translate(-6,20)"><g fill="#00f"><rect x="-2" y="-2" width="4" height="4"/></g></g><g transform="translate(0,20)"><g fill="#00f"><rect x="-2" y="-2" width="4" height="4"/></g></g><g transform="translate(6,20)"><g fill="#00f"><rect x="-2" y="-2" width="4" height="4"/></g></g><g fill="#0f0"><circle r="3"/></g></g><g transform="translate(0,20)"><line x1="0" y1="0" x2="-3" y2="20"/><line x1="0" y1="0" x2="3" y2="20"/><g transform="translate(-3,20)"><g fill="#00f"><rect x="-2" y="-2" width="4" height="4"/></g></g><g transform="translate(3,20)"><g fill="#00f"><rect x="-2" y="-2" width="4" height="4"/></g></g><g fill="#0f0"><circle r="3"/></g></g><g transform="translate(15,20)"><line x1="0" y1="0" x2="-6" y2="20"/><line x1="0" y1="0" x2="0" y2="20"/><line x1="0" y1="0" x2="6" y2="20"/><g transform="translate(-6,20)"><g fill="#00f"><rect x="-2" y="-2" width="4" height="4"/></g></g><g transform="translate(0,20)"><g fill="#00f"><rect x="-2" y="-2" width="4" height="4"/></g></g><g transform="translate(6,20)"><g fill="#00f"><rect x="-2" y="-2" width="4" height="4"/></g></g><g fill="#0f0"><circle r="3"/></g></g><g fill="#0f0"><circle r="3"/></g></g><g transform="translate(42,20)"><line x1="0" y1="0" x2="-9" y2="20"/><line x1="0" y1="0" x2="9" y2="20"/><g transform="translate(-9,20)"><line x1="0" y1="0" x2="-6" y2="20"/><line x1="0" y1="0" x2="0" y2="20"/><line x1="0" y1="0" x2="6" y2="20"/><g transform="translate(-6,20)"><g fill="#00f"><rect x="-2" y="-2" width="4" height="4"/></g></g><g transform="translate(0,20)"><g fill="#00f"><rect x="-2" y="-2" width="4" height="4"/></g></g><g transform="translate(6,20)"><g fill="#00f"><rect x="-2" y="-2" width="4" height="4"/></g></g><g fill="#0f0"><circle r="3"/></g></g><g transform="translate(9,20)"><line x1="0" y1="0" x2="-6" y2="20"/><line x1="0" y1="0" x2="0" y2="20"/><line x1="0" y1="0" x2="6" y2="20"/><g transform="translate(-6,20)"><g fill="#00f"><rect x="-2" y="-2" width="4" height="4"/></g></g><g transform="translate(0,20)"><g fill="#00f"><rect x="-2" y="-2" width="4" height="4"/></g></g><g transform="translate(6,20)"><g fill="#00f"><rect x="-2" y="-2" width="4" height="4"/></g></g><g fill="#0f0"><circle r="3"/></g></g><g fill="#0f0"><circle r="3"/></g></g><g fill="#0f0"><circle r="3"/></g></g><g fill="#0f0"><circle r="3"/></g></g><g fill="#f00"><circle r="3"/></g></g><g transform="translate(-252,20)"><line x1="0" y1="0" x2="-24" y2="20"/><line x1="0" y1="0" x2="0" y2="20"/><line x1="0" y1="0" x2="45" y2="20"/><g transform="translate(-24,20)"><line x1="0" y1="0" x2="-6" y2="20"/><line x1="0" y1="0" x2="6" y2="20"/><g transform="translate(-6,20)"><line x1="0" y1="0" x2="-3" y2="20"/><line x1="0" y1="0" x2="3" y2="20"/><g transform="translate(-3,20)"><g fill="#00f"><rect x="-2" y="-2" width="4" height="4"/></g></g><g transform="translate(3,20)"><g fill="#00f"><rect x="-2" y="-2" width="4" height="4"/></g></g><g fill="#0f0"><circle r="3"/></g></g><g transform="translate(6,20)"><line x1="0" y1="0" x2="-3" y2="20"/><line x1="0" y1="0" x2="3" y2="20"/><g transform="translate(-3,20)"><g fill="#00f"><rect x="-2" y="-2" width="4" height="4"/></g></g><g transform="translate(3,20)"><g fill="#00f"><rect x="-2" y="-2" width="4" height="4"/></g></g><g fill="#0f0"><circle r="3"/></g></g><g fill="#0f0"><circle r="3"/></g></g><g transform="translate(0,20)"><line x1="0" y1="0" x2="-6" y2="20"/><line x1="0" y1="0" x2="9" y2="20"/><g transform="translate(-6,20)"><line x1="0" y1="0" x2="-3" y2="20"/><line x1="0" y1="0" x2="3" y2="20"/><g transform="translate(-3,20)"><g fill="#00f"><rect x="-2" y="-2" width="4" height="4"/></g></g><g transform="translate(3,20)"><g fill="#00f"><rect x="-2" y="-2" width="4" height="4"/></g></g><g fill="#0f0"><circle r="3"/></g></g><g transform="translate(9,20)"><line x1="0" y1="0" x2="-6" y2="20"/><line x1="0" y1="0" x2="0" y2="20"/><line x1="0" y1="0" x2="6" y2="20"/><g transform="translate(-6,20)"><g fill="#00f"><rect x="-2" y="-2" width="4" height="4"/></g></g><g transform="translate(0,20)"><g fill="#00f"><rect x="-2" y="-2" width="4" height="4"/></g></g><g transform="translate(6,20)"><g fill="#00f"><rect x="-2" y="-2" width="4" height="4"/></g></g><g fill="#0f0"><circle r="3"/></g></g><g fill="#0f0"><circle r="3"/></g></g><g transform="translate(45,20)"><line x1="0" y1="0" x2="-18" y2="20"/><line x1="0" y1="0" x2="0" y2="20"/><line x1="0" y1="0" x2="15" y2="20"/><g transform="translate(-18,20)"><line x1="0" y1="0" x2="-6" y2="20"/><line x1="0" y1="0" x2="0" y2="20"/><line x1="0" y1="0" x2="6" y2="20"/><g transform="translate(-6,20)"><g fill="#00f"><rect x="-2" y="-2" width="4" height="4"/></g></g><g transform="translate(0,20)"><g fill="#00f"><rect x="-2" y="-2" width="4" height="4"/></g></g><g transform="translate(6,20)"><g fill="#00f"><rect x="-2" y="-2" width="4" height="4"/></g></g><g fill="#0f0"><circle r="3"/></g></g><g transform="translate(0,20)"><line x1="0" y1="0" x2="-6" y2="20"/><line x1="0" y1="0" x2="0" y2="20"/><line x1="0" y1="0" x2="6" y2="20"/><g transform="translate(-6,20)"><g fill="#00f"><rect x="-2" y="-2" width="4" height="4"/></g></g><g transform="translate(0,20)"><g fill="#00f"><rect x="-2" y="-2" width="4" height="4"/></g></g><g transform="translate(6,20)"><g fill="#00f"><rect x="-2" y="-2" width="4" height="4"/></g></g><g fill="#0f0"><circle r="3"/></g></g><g transform="translate(15,20)"><line x1="0" y1="0" x2="-3" y2="20"/><line x1="0" y1="0" x2="3" y2="20"/><g transform="translate(-3,20)"><g fill="#00f"><rect x="-2" y="-2" width="4" height="4"/></g></g><g transform="translate(3,20)"><g fill="#00f"><rect x="-2" y="-2" width="4" height="4"/></g></g><g fill="#0f0"><circle r="3"/></g></g><g fill="#0f0"><circle r="3"/></g></g><g fill="#0f0"><circle r="3"/></g></g><g transform="translate(-126,20)"><line x1="0" y1="0" x2="-42" y2="20"/><line x1="0" y1="0" x2="0" y2="20"/><line x1="0" y1="0" x2="36" y2="20"/><g transform="translate(-42,20)"><line x1="0" y1="0" x2="-9" y2="20"/><line x1="0" y1="0" x2="9" y2="20"/><g transform="translate(-9,20)"><line x1="0" y1="0" x2="-6" y2="20"/><line x1="0" y1="0" x2="0" y2="20"/><line x1="0" y1="0" x2="6" y2="20"/><g transform="translate(-6,20)"><g fill="#00f"><rect x="-2" y="-2" width="4" height="4"/></g></g><g transform="translate(0,20)"><g fill="#00f"><rect x="-2" y="-2" width="4" height="4"/></g></g><g transform="translate(6,20)"><g fill="#00f"><rect x="-2" y="-2" width="4" height="4"/></g></g><g fill="#0f0"><circle r="3"/></g></g><g transform="translate(9,20)"><line x1="0" y1="0" x2="-6" y2="20"/><line x1="0" y1="0" x2="0" y2="20"/><line x1="0" y1="0" x2="6" y2="20"/><g transform="translate(-6,20)"><g fill="#00f"><rect x="-2" y="-2" width="4" height="4"/></g></g><g transform="translate(0,20)"><g fill="#00f"><rect x="-2" y="-2" width="4" height="4"/></g></g><g transform="translate(6,20)"><g fill="#00f"><rect x="-2" y="-2" width="4" height="4"/></g></g><g fill="#0f0"><circle r="3"/></g></g><g fill="#0f0"><circle r="3"/></g></g><g transform="translate(0,20)"><line x1="0" y1="0" x2="-15" y2="20"/><line x1="0" y1="0" x2="0" y2="20"/><line x1="0" y1="0" x2="12" y2="20"/><g transform="translate(-15,20)"><line x1="0" y1="0" x2="-6" y2="20"/><line x1="0" y1="0" x2="0" y2="20"/><line x1="0" y1="0" x2="6" y2="20"/><g transform="translate(-6,20)"><g fill="#00f"><rect x="-2" y="-2" width="4" height="4"/></g></g><g transform="translate(0,20)"><g fill="#00f"><rect x="-2" y="-2" width="4" height="4"/></g></g><g transform="translate(6,20)"><g fill="#00f"><rect x="-2" y="-2" width="4" height="4"/></g></g><g fill="#0f0"><circle r="3"/></g></g><g transform="translate(0,20)"><line x1="0" y1="0" x2="-3" y2="20"/><line x1="0" y1="0" x2="3" y2="20"/><g transform="translate(-3,20)"><g fill="#00f"><rect x="-2" y="-2" width="4" height="4"/></g></g><g transform="translate(3,20)"><g fill="#00f"><rect x="-2" y="-2" width="4" height="4"/></g></g><g fill="#0f0"><circle r="3"/></g></g><g transform="translate(12,20)"><line x1="0" y1="0" x2="-3" y2="20"/><line x1="0" y1="0" x2="3" y2="20"/><g transform="translate(-3,20)"><g fill="#00f"><rect x="-2" y="-2" width="4" height="4"/></g></g><g transform="translate(3,20)"><g fill="#00f"><rect x="-2" y="-2" width="4" height="4"/></g></g><g fill="#0f0"><circle r="3"/></g></g><g fill="#0f0"><circle r="3"/></g></g><g transform="translate(36,20)"><line x1="0" y1="0" x2="-12" y2="20"/><line x1="0" y1="0" x2="0" y2="20"/><line x1="0" y1="0" x2="15" y2="20"/><g transform="translate(-12,20)"><line x1="0" y1="0" x2="-3" y2="20"/><line x1="0" y1="0" x2="3" y2="20"/><g transform="translate(-3,20)"><g fill="#00f"><rect x="-2" y="-2" width="4" height="4"/></g></g><g transform="translate(3,20)"><g fill="#00f"><rect x="-2" y="-2" width="4" height="4"/></g></g><g fill="#0f0"><circle r="3"/></g></g><g transform="translate(0,20)"><line x1="0" y1="0" x2="-3" y2="20"/><line x1="0" y1="0" x2="3" y2="20"/><g transform="translate(-3,20)"><g fill="#00f"><rect x="-2" y="-2" width="4" height="4"/></g></g><g transform="translate(3,20)"><g fill="#00f"><rect x="-2" y="-2" width="4" height="4"/></g></g><g fill="#0f0"><circle r="3"/></g></g><g transform="translate(15,20)"><line x1="0" y1="0" x2="-6" y2="20"/><line x1="0" y1="0" x2="0" y2="20"/><line x1="0" y1="0" x2="6" y2="20"/><g transform="translate(-6,20)"><g fill="#00f"><rect x="-2" y="-2" width="4" height="4"/></g></g><g transform="translate(0,20)"><g fill="#00f"><rect x="-2" y="-2" width="4" height="4"/></g></g><g transform="translate(6,20)"><g fill="#00f"><rect x="-2" y="-2" width="4" height="4"/></g></g><g fill="#0f0"><circle r="3"/></g></g><g fill="#0f0"><circle r="3"/></g></g><g fill="#0f0"><circle r="3"/></g></g><g transform="translate(174,20)"><line x1="0" y1="0" x2="-18" y2="20"/><line x1="0" y1="0" x2="27" y2="20"/><g transform="translate(-18,20)"><line x1="0" y1="0" x2="-9" y2="20"/><line x1="0" y1="0" x2="9" y2="20"/><g transform="translate(-9,20)"><line x1="0" y1="0" x2="-6" y2="20"/><line x1="0" y1="0" x2="0" y2="20"/><line x1="0" y1="0" x2="6" y2="20"/><g transform="translate(-6,20)"><g fill="#00f"><rect x="-2" y="-2" width="4" height="4"/></g></g><g transform="translate(0,20)"><g fill="#00f"><rect x="-2" y="-2" width="4" height="4"/></g></g><g transform="translate(6,20)"><g fill="#00f"><rect x="-2" y="-2" width="4" height="4"/></g></g><g fill="#0f0"><circle r="3"/></g></g><g transform="translate(9,20)"><line x1="0" y1="0" x2="-6" y2="20"/><line x1="0" y1="0" x2="0" y2="20"/><line x1="0" y1="0" x2="6" y2="20"/><g transform="translate(-6,20)"><g fill="#00f"><rect x="-2" y="-2" width="4" height="4"/></g></g><g transform="translate(0,20)"><g fill="#00f"><rect x="-2" y="-2" width="4" height="4"/></g></g><g transform="translate(6,20)"><g fill="#00f"><rect x="-2" y="-2" width="4" height="4"/></g></g><g fill="#0f0"><circle r="3"/></g></g><g fill="#0f0"><circle r="3"/></g></g><g transform="translate(27,20)"><line x1="0" y1="0" x2="-18" y2="20"/><line x1="0" y1="0" x2="0" y2="20"/><line x1="0" y1="0" x2="15" y2="20"/><g transform="translate(-18,20)"><line x1="0" y1="0" x2="-6" y2="20"/><line x1="0" y1="0" x2="0" y2="20"/><line x1="0" y1="0" x2="6" y2="20"/><g transform="translate(-6,20)"><g fill="#00f"><rect x="-2" y="-2" width="4" height="4"/></g></g><g transform="translate(0,20)"><g fill="#00f"><rect x="-2" y="-2" width="4" height="4"/></g></g><g transform="translate(6,20)"><g fill="#00f"><rect x="-2" y="-2" width="4" height="4"/></g></g><g fill="#0f0"><circle r="3"/></g></g><g transform="translate(0,20)"><line x1="0" y1="0" x2="-6" y2="20"/><line x1="0" y1="0" x2="0" y2="20"/><line x1="0" y1="0" x2="6" y2="20"/><g transform="translate(-6,20)"><g fill="#00f"><rect x="-2" y="-2" width="4" height="4"/></g></g><g transform="translate(0,20)"><g fill="#00f"><rect x="-2" y="-2" width="4" height="4"/></g></g><g transform="translate(6,20)"><g fill="#00f"><rect x="-2" y="-2" width="4" height="4"/></g></g><g fill="#0f0"><circle r="3"/></g></g><g transform="translate(15,20)"><line x1="0" y1="0" x2="-3" y2="20"/><line x1="0" y1="0" x2="3" y2="20"/><g transform="translate(-3,20)"><g fill="#00f"><rect x="-2" y="-2" width="4" height="4"/></g></g><g transform="translate(3,20)"><g fill="#00f"><rect x="-2" y="-2" width="4" height="4"/></g></g><g fill="#0f0"><circle r="3"/></g></g><g fill="#0f0"><circle r="3"/></g></g><g fill="#0f0"><circle r="3"/></g></g><g fill="#f00"><circle r="3"/></g></g><g transform="translate(-300,20)"><line x1="0" y1="0" x2="-6" y2="20"/><line x1="0" y1="0" x2="6" y2="20"/><g transform="translate(-6,20)"><line x1="0" y1="0" x2="-3" y2="20"/><line x1="0" y1="0" x2="3" y2="20"/><g transform="translate(-3,20)"><g fill="#00f"><rect x="-2" y="-2" width="4" height="4"/></g></g><g transform="translate(3,20)"><g fill="#00f"><rect x="-2" y="-2" width="4" height="4"/></g></g><g fill="#0f0"><circle r="3"/></g></g><g transform="translate(6,20)"><line x1="0" y1="0" x2="-3" y2="20"/><line x1="0" y1="0" x2="3" y2="20"/><g transform="translate(-3,20)"><g fill="#00f"><rect x="-2" y="-2" width="4" height="4"/></g></g><g transform="translate(3,20)"><g fill="#00f"><rect x="-2" y="-2" width="4" height="4"/></g></g><g fill="#0f0"><circle r="3"/></g></g><g fill="#0f0"><circle r="3"/></g></g><g transform="translate(240,20)"><line x1="0" y1="0" x2="-12" y2="20"/><line x1="0" y1="0" x2="0" y2="20"/><line x1="0" y1="0" x2="12" y2="20"/><g transform="translate(-12,20)"><line x1="0" y1="0" x2="-3" y2="20"/><line x1="0" y1="0" x2="3" y2="20"/><g transform="translate(-3,20)"><g fill="#00f"><rect x="-2" y="-2" width="4" height="4"/></g></g><g transform="translate(3,20)"><g fill="#00f"><rect x="-2" y="-2" width="4" height="4"/></g></g><g fill="#0f0"><circle r="3"/></g></g><g transform="translate(0,20)"><line x1="0" y1="0" x2="-3" y2="20"/><line x1="0" y1="0" x2="3" y2="20"/><g transform="translate(-3,20)"><g fill="#00f"><rect x="-2" y="-2" width="4" height="4"/></g></g><g transform="translate(3,20)"><g fill="#00f"><rect x="-2" y="-2" width="4" height="4"/></g></g><g fill="#0f0"><circle r="3"/></g></g><g transform="translate(12,20)"><line x1="0" y1="0" x2="-3" y2="20"/><line x1="0" y1="0" x2="3" y2="20"/><g transform="translate(-3,20)"><g fill="#00f"><rect x="-2" y="-2" width="4" height="4"/></g></g><g transform="translate(3,20)"><g fill="#00f"><rect x="-2" y="-2" width="4" height="4"/></g></g><g fill="#0f0"><circle r="3"/></g></g><g fill="#0f0"><circle r="3"/></g></g><g transform="translate(276,20)"><line x1="0" y1="0" x2="-9" y2="20"/><line x1="0" y1="0" x2="9" y2="20"/><g transform="translate(-9,20)"><line x1="0" y1="0" x2="-6" y2="20"/><line x1="0" y1="0" x2="0" y2="20"/><line x1="0" y1="0" x2="6" y2="20"/><g transform="translate(-6,20)"><g fill="#00f"><rect x="-2" y="-2" width="4" height="4"/></g></g><g transform="translate(0,20)"><g fill="#00f"><rect x="-2" y="-2" width="4" height="4"/></g></g><g transform="translate(6,20)"><g fill="#00f"><rect x="-2" y="-2" width="4" height="4"/></g></g><g fill="#0f0"><circle r="3"/></g></g><g transform="translate(9,20)"><line x1="0" y1="0" x2="-6" y2="20"/><line x1="0" y1="0" x2="0" y2="20"/><line x1="0" y1="0" x2="6" y2="20"/><g transform="translate(-6,20)"><g fill="#00f"><rect x="-2" y="-2" width="4" height="4"/></g></g><g transform="translate(0,20)"><g fill="#00f"><rect x="-2" y="-2" width="4" height="4"/></g></g><g transform="translate(6,20)"><g fill="#00f"><rect x="-2" y="-2" width="4" height="4"/></g></g><g fill="#0f0"><circle r="3"/></g></g><g fill="#0f0"><circle r="3"/></g></g><g transform="translate(312,20)"><line x1="0" y1="0" x2="-9" y2="20"/><line x1="0" y1="0" x2="9" y2="20"/><g transform="translate(-9,20)"><line x1="0" y1="0" x2="-6" y2="20"/><line x1="0" y1="0" x2="0" y2="20"/><line x1="0" y1="0" x2="6" y2="20"/><g transform="translate(-6,20)"><g fill="#00f"><rect x="-2" y="-2" width="4" height="4"/></g></g><g transform="translate(0,20)"><g fill="#00f"><rect x="-2" y="-2" width="4" height="4"/></g></g><g transform="translate(6,20)"><g fill="#00f"><rect x="-2" y="-2" width="4" height="4"/></g></g><g fill="#0f0"><circle r="3"/></g></g><g transform="translate(9,20)"><line x1="0" y1="0" x2="-6" y2="20"/><line x1="0" y1="0" x2="0" y2="20"/><line x1="0" y1="0" x2="6" y2="20"/><g transform="translate(-6,20)"><g fill="#00f"><rect x="-2" y="-2" width="4" height="4"/></g></g><g transform="translate(0,20)"><g fill="#00f"><rect x="-2" y="-2" width="4" height="4"/></g></g><g transform="translate(6,20)"><g fill="#00f"><rect x="-2" y="-2" width="4" height="4"/></g></g><g fill="#0f0"><circle r="3"/></g></g><g fill="#0f0"><circle r="3"/></g></g><g transform="translate(342,20)"><line x1="0" y1="0" x2="-6" y2="20"/><line x1="0" y1="0" x2="9" y2="20"/><g transform="translate(-6,20)"><line x1="0" y1="0" x2="-3" y2="20"/><line x1="0" y1="0" x2="3" y2="20"/><g transform="translate(-3,20)"><g fill="#00f"><rect x="-2" y="-2" width="4" height="4"/></g></g><g transform="translate(3,20)"><g fill="#00f"><rect x="-2" y="-2" width="4" height="4"/></g></g><g fill="#0f0"><circle r="3"/></g></g><g transform="translate(9,20)"><line x1="0" y1="0" x2="-6" y2="20"/><line x1="0" y1="0" x2="0" y2="20"/><line x1="0" y1="0" x2="6" y2="20"/><g transform="translate(-6,20)"><g fill="#00f"><rect x="-2" y="-2" width="4" height="4"/></g></g><g transform="translate(0,20)"><g fill="#00f"><rect x="-2" y="-2" width="4" height="4"/></g></g><g transform="translate(6,20)"><g fill="#00f"><rect x="-2" y="-2" width="4" height="4"/></g></g><g fill="#0f0"><circle r="3"/></g></g><g fill="#0f0"><circle r="3"/></g></g><g fill="#f00"><circle r="3"/></g></g><g transform="translate(-375,20)"><line x1="0" y1="0" x2="-6" y2="20"/><line x1="0" y1="0" x2="0" y2="20"/><line x1="0" y1="0" x2="6" y2="20"/><g transform="translate(-6,20)"><g fill="#00f"><rect x="-2" y="-2" width="4" height="4"/></g></g><g transform="translate(0,20)"><g fill="#00f"><rect x="-2" y="-2" width="4" height="4"/></g></g><g transform="translate(6,20)"><g fill="#00f"><rect x="-2" y="-2" width="4" height="4"/></g></g><g fill="#0f0"><circle r="3"/></g></g><g transform="translate(-357,20)"><line x1="0" y1="0" x2="-6" y2="20"/><line x1="0" y1="0" x2="0" y2="20"/><line x1="0" y1="0" x2="6" y2="20"/><g transform="translate(-6,20)"><g fill="#00f"><rect x="-2" y="-2" width="4" height="4"/></g></g><g transform="translate(0,20)"><g fill="#00f"><rect x="-2" y="-2" width="4" height="4"/></g></g><g transform="translate(6,20)"><g fill="#00f"><rect x="-2" y="-2" width="4" height="4"/></g></g><g fill="#0f0"><circle r="3"/></g></g><g transform="translate(-339,20)"><line x1="0" y1="0" x2="-6" y2="20"/><line x1="0" y1="0" x2="0" y2="20"/><line x1="0" y1="0" x2="6" y2="20"/><g transform="translate(-6,20)"><g fill="#00f"><rect x="-2" y="-2" width="4" height="4"/></g></g><g transform="translate(0,20)"><g fill="#00f"><rect x="-2" y="-2" width="4" height="4"/></g></g><g transform="translate(6,20)"><g fill="#00f"><rect x="-2" y="-2" width="4" height="4"/></g></g><g fill="#0f0"><circle r="3"/></g></g><g transform="translate(-321,20)"><line x1="0" y1="0" x2="-6" y2="20"/><line x1="0" y1="0" x2="0" y2="20"/><line x1="0" y1="0" x2="6" y2="20"/><g transform="translate(-6,20)"><g fill="#00f"><rect x="-2" y="-2" width="4" height="4"/></g></g><g transform="translate(0,20)"><g fill="#00f"><rect x="-2" y="-2" width="4" height="4"/></g></g><g transform="translate(6,20)"><g fill="#00f"><rect x="-2" y="-2" width="4" height="4"/></g></g><g fill="#0f0"><circle r="3"/></g></g><g transform="translate(366,20)"><line x1="0" y1="0" x2="-3" y2="20"/><line x1="0" y1="0" x2="3" y2="20"/><g transform="translate(-3,20)"><g fill="#00f"><rect x="-2" y="-2" width="4" height="4"/></g></g><g transform="translate(3,20)"><g fill="#00f"><rect x="-2" y="-2" width="4" height="4"/></g></g><g fill="#0f0"><circle r="3"/></g></g><g transform="translate(378,20)"><line x1="0" y1="0" x2="-3" y2="20"/><line x1="0" y1="0" x2="3" y2="20"/><g transform="translate(-3,20)"><g fill="#00f"><rect x="-2" y="-2" width="4" height="4"/></g></g><g transform="translate(3,20)"><g fill="#00f"><rect x="-2" y="-2" width="4" height="4"/></g></g><g fill="#0f0"><circle r="3"/></g></g><g transform="translate(390,20)"><line x1="0" y1="0" x2="-3" y2="20"/><line x1="0" y1="0" x2="3" y2="20"/><g transform="translate(-3,20)"><g fill="#00f"><rect x="-2" y="-2" width="4" height="4"/></g></g><g transform="translate(3,20)"><g fill="#00f"><rect x="-2" y="-2" width="4" height="4"/></g></g><g fill="#0f0"><circle r="3"/></g></g><g fill="#f00"><circle r="3"/></g></g><g transform="translate(-399,20)"><g fill="#00f"><rect x="-2" y="-2" width="4" height="4"/></g></g><g transform="translate(-393,20)"><g fill="#00f"><rect x="-2" y="-2" width="4" height="4"/></g></g><g transform="translate(-387,20)"><g fill="#00f"><rect x="-2" y="-2" width="4" height="4"/></g></g><g transform="translate(399,20)"><g fill="#00f"><rect x="-2" y="-2" width="4" height="4"/></g></g><g transform="translate(405,20)"><g fill="#00f"><rect x="-2" y="-2" width="4" height="4"/></g></g><g fill="#f00"><circle r="3"/></g></g></g></svg>
